<?xml version="1.0" encoding="UTF-8" standalone="no"?><!DOCTYPE svg PUBLIC "-//W3C//DTD SVG 1.1//EN" "http://www.w3.org/Graphics/SVG/1.1/DTD/svg11.dtd"><!-- Generated by graphviz version 2.40.1 (20161225.0304)
 --><!-- Title: G Pages: 1 --><svg xmlns="http://www.w3.org/2000/svg" xmlns:xlink="http://www.w3.org/1999/xlink" width="318pt" height="191pt" viewBox="0.00 0.00 318.11 191.00">
<g id="graph0" class="graph" transform="scale(1 1) rotate(0) translate(4 187)">
<title>G</title>
<polygon fill="#ffffff" stroke="transparent" points="-4,4 -4,-187 314.1066,-187 314.1066,4 -4,4"/>
<!-- A -->
<g id="node1" class="node">
<title>A</title>
<polygon fill="none" stroke="#000000" points="122,-146.5 122,-182.5 187.1066,-182.5 187.1066,-146.5 122,-146.5"/>
<text text-anchor="middle" x="131.75" y="-160.3" font-family="Times,serif" font-size="14.00" fill="#000000"> </text>
<polyline fill="none" stroke="#000000" points="141.5,-146.5 141.5,-182.5 "/>
<text text-anchor="middle" x="154.5533" y="-160.3" font-family="Times,serif" font-size="14.00" fill="#000000">A</text>
<polyline fill="none" stroke="#000000" points="167.6066,-146.5 167.6066,-182.5 "/>
<text text-anchor="middle" x="177.3566" y="-160.3" font-family="Times,serif" font-size="14.00" fill="#000000"> </text>
</g>
<!-- B -->
<g id="node2" class="node">
<title>B</title>
<polygon fill="none" stroke="#000000" points="60.385,-73.5 60.385,-109.5 124.7216,-109.5 124.7216,-73.5 60.385,-73.5"/>
<text text-anchor="middle" x="70.135" y="-87.3" font-family="Times,serif" font-size="14.00" fill="#000000"> </text>
<polyline fill="none" stroke="#000000" points="79.885,-73.5 79.885,-109.5 "/>
<text text-anchor="middle" x="92.5533" y="-87.3" font-family="Times,serif" font-size="14.00" fill="#000000">B</text>
<polyline fill="none" stroke="#000000" points="105.2216,-73.5 105.2216,-109.5 "/>
<text text-anchor="middle" x="114.9716" y="-87.3" font-family="Times,serif" font-size="14.00" fill="#000000"> </text>
</g>
<!-- A&#45;&gt;B -->
<g id="edge1" class="edge">
<title>A:left-&gt;B:data</title>
<path fill="none" stroke="#000000" d="M129.6722,-138.6528C123.4643,-127.662 103.5794,-128.8326 95.7573,-119.277"/>
<ellipse fill="#000000" stroke="#000000" cx="130.6208" cy="-142.6102" rx="4" ry="4"/>
<polygon fill="#000000" stroke="#000000" points="98.9934,-117.9128 92.5533,-109.5 92.3415,-120.0927 98.9934,-117.9128"/>
</g>
<!-- C -->
<g id="node3" class="node">
<title>C</title>
<polygon fill="none" stroke="#000000" points="185.385,-73.5 185.385,-109.5 249.7216,-109.5 249.7216,-73.5 185.385,-73.5"/>
<text text-anchor="middle" x="195.135" y="-87.3" font-family="Times,serif" font-size="14.00" fill="#000000"> </text>
<polyline fill="none" stroke="#000000" points="204.885,-73.5 204.885,-109.5 "/>
<text text-anchor="middle" x="217.5533" y="-87.3" font-family="Times,serif" font-size="14.00" fill="#000000">C</text>
<polyline fill="none" stroke="#000000" points="230.2216,-73.5 230.2216,-109.5 "/>
<text text-anchor="middle" x="239.9716" y="-87.3" font-family="Times,serif" font-size="14.00" fill="#000000"> </text>
</g>
<!-- A&#45;&gt;C -->
<g id="edge2" class="edge">
<title>A:right-&gt;C:data</title>
<path fill="none" stroke="#000000" d="M179.4826,-138.5705C185.9122,-127.402 206.6458,-128.9825 214.4996,-119.0834"/>
<ellipse fill="#000000" stroke="#000000" cx="178.499" cy="-142.6134" rx="4" ry="4"/>
<polygon fill="#000000" stroke="#000000" points="217.8519,-120.0906 217.5533,-109.5 211.1824,-117.9653 217.8519,-120.0906"/>
</g>
<!-- D -->
<g id="node4" class="node">
<title>D</title>
<polygon fill="none" stroke="#000000" points="0,-.5 0,-36.5 65.1066,-36.5 65.1066,-.5 0,-.5"/>
<text text-anchor="middle" x="9.75" y="-14.3" font-family="Times,serif" font-size="14.00" fill="#000000"> </text>
<polyline fill="none" stroke="#000000" points="19.5,-.5 19.5,-36.5 "/>
<text text-anchor="middle" x="32.5533" y="-14.3" font-family="Times,serif" font-size="14.00" fill="#000000">D</text>
<polyline fill="none" stroke="#000000" points="45.6066,-.5 45.6066,-36.5 "/>
<text text-anchor="middle" x="55.3566" y="-14.3" font-family="Times,serif" font-size="14.00" fill="#000000"> </text>
</g>
<!-- B&#45;&gt;D -->
<g id="edge3" class="edge">
<title>B:left-&gt;D:data</title>
<path fill="none" stroke="#000000" d="M68.5103,-65.3682C62.2205,-54.8063 43.122,-55.6095 35.6228,-46.1209"/>
<ellipse fill="#000000" stroke="#000000" cx="69.5786" cy="-69.6206" rx="4" ry="4"/>
<polygon fill="#000000" stroke="#000000" points="38.9273,-44.963 32.5533,-36.5 32.2585,-47.0907 38.9273,-44.963"/>
</g>
<!-- E -->
<g id="node5" class="node">
<title>E</title>
<polygon fill="none" stroke="#000000" points="82.777,-.5 82.777,-36.5 146.3296,-36.5 146.3296,-.5 82.777,-.5"/>
<text text-anchor="middle" x="92.527" y="-14.3" font-family="Times,serif" font-size="14.00" fill="#000000"> </text>
<polyline fill="none" stroke="#000000" points="102.277,-.5 102.277,-36.5 "/>
<text text-anchor="middle" x="114.5533" y="-14.3" font-family="Times,serif" font-size="14.00" fill="#000000">E</text>
<polyline fill="none" stroke="#000000" points="126.8296,-.5 126.8296,-36.5 "/>
<text text-anchor="middle" x="136.5796" y="-14.3" font-family="Times,serif" font-size="14.00" fill="#000000"> </text>
</g>
<!-- B&#45;&gt;E -->
<g id="edge4" class="edge">
<title>B:right-&gt;E:data</title>
<path fill="none" stroke="#000000" d="M114.5533,-65.3882C114.5533,-58.1404 114.5533,-53.4085 114.5533,-46.5932"/>
<ellipse fill="#000000" stroke="#000000" cx="114.5533" cy="-69.5" rx="4" ry="4"/>
<polygon fill="#000000" stroke="#000000" points="118.0534,-46.5 114.5533,-36.5 111.0534,-46.5 118.0534,-46.5"/>
</g>
<!-- F -->
<g id="node6" class="node">
<title>F</title>
<polygon fill="none" stroke="#000000" points="164.162,-.5 164.162,-36.5 226.9446,-36.5 226.9446,-.5 164.162,-.5"/>
<text text-anchor="middle" x="173.912" y="-14.3" font-family="Times,serif" font-size="14.00" fill="#000000"> </text>
<polyline fill="none" stroke="#000000" points="183.662,-.5 183.662,-36.5 "/>
<text text-anchor="middle" x="195.5533" y="-14.3" font-family="Times,serif" font-size="14.00" fill="#000000">F</text>
<polyline fill="none" stroke="#000000" points="207.4446,-.5 207.4446,-36.5 "/>
<text text-anchor="middle" x="217.1946" y="-14.3" font-family="Times,serif" font-size="14.00" fill="#000000"> </text>
</g>
<!-- C&#45;&gt;F -->
<g id="edge5" class="edge">
<title>C:left-&gt;F:data</title>
<path fill="none" stroke="#000000" d="M195.5533,-65.3882C195.5533,-58.1404 195.5533,-53.4085 195.5533,-46.5932"/>
<ellipse fill="#000000" stroke="#000000" cx="195.5533" cy="-69.5" rx="4" ry="4"/>
<polygon fill="#000000" stroke="#000000" points="199.0534,-46.5 195.5533,-36.5 192.0534,-46.5 199.0534,-46.5"/>
</g>
<!-- G -->
<g id="node7" class="node">
<title>G</title>
<polygon fill="none" stroke="#000000" points="245,-.5 245,-36.5 310.1066,-36.5 310.1066,-.5 245,-.5"/>
<text text-anchor="middle" x="254.75" y="-14.3" font-family="Times,serif" font-size="14.00" fill="#000000"> </text>
<polyline fill="none" stroke="#000000" points="264.5,-.5 264.5,-36.5 "/>
<text text-anchor="middle" x="277.5533" y="-14.3" font-family="Times,serif" font-size="14.00" fill="#000000">G</text>
<polyline fill="none" stroke="#000000" points="290.6066,-.5 290.6066,-36.5 "/>
<text text-anchor="middle" x="300.3566" y="-14.3" font-family="Times,serif" font-size="14.00" fill="#000000"> </text>
</g>
<!-- C&#45;&gt;G -->
<g id="edge6" class="edge">
<title>C:right-&gt;G:data</title>
<path fill="none" stroke="#000000" d="M241.5963,-65.3682C247.8861,-54.8063 266.9846,-55.6095 274.4838,-46.1209"/>
<ellipse fill="#000000" stroke="#000000" cx="240.528" cy="-69.6206" rx="4" ry="4"/>
<polygon fill="#000000" stroke="#000000" points="277.8481,-47.0907 277.5533,-36.5 271.1793,-44.963 277.8481,-47.0907"/>
</g>
</g>
</svg>