<?xml version="1.0" encoding="utf-8"?>
<!-- Generator: Adobe Illustrator 27.0.0, SVG Export Plug-In . SVG Version: 6.00 Build 0)  -->
<svg version="1.1" id="Layer_1" xmlns="http://www.w3.org/2000/svg" xmlns:xlink="http://www.w3.org/1999/xlink" x="0px" y="0px"
	 viewBox="0 0 228.1 44.2" style="enable-background:new 0 0 228.1 44.2;" xml:space="preserve">
<style type="text/css">
	.st0{fill-rule:evenodd;clip-rule:evenodd;fill:#1C468E;}
</style>
<path id="WDW_logo" class="st0" d="M164.4,11.1v0.6c-0.4,0-0.8,0.1-1.2,0.2c-0.4,0.1-0.7,0.5-0.7,0.9c0,0.2,0,0.4,0.1,0.6
	c0.1,0.2,0.1,0.4,0.2,0.7l4.3,11.7l3.1-8.7l-1.4-3.8c-0.2-0.6-0.6-1.1-1.2-1.4c-0.4-0.2-0.9-0.2-1.4-0.2v-0.6h7.9v0.6
	c-0.5,0-1,0-1.5,0.2c-0.4,0.2-0.7,0.6-0.7,1.1c0,0.2,0,0.3,0.1,0.5c0,0.1,0.1,0.4,0.3,0.8l4.2,11.6l3.7-10.5
	c0.2-0.5,0.3-1.1,0.4-1.6c0-0.2,0.1-0.4,0.1-0.6c0-0.5-0.3-1-0.8-1.2c-0.4-0.2-0.9-0.2-1.3-0.2v-0.6h5.9v0.6
	c-0.4,0.1-0.8,0.2-1.2,0.4c-0.5,0.4-0.9,0.9-1.1,1.5l-3.1,9.2l-1.2,3.6l-1.9,5.6h-0.4l-1.3-3.6l-3.4-9.5L166.4,32h-0.4l-2.2-6.4
	l-2.5-7.2c-0.6-1.9-1.3-3.7-2.1-5.5c-0.4-0.7-1.1-1.1-1.9-1.1v-0.6L164.4,11.1 M182.9,19.5c1.2-1.4,2.9-2.1,4.7-2.1
	c1.8,0,3.5,0.7,4.7,2c1.3,1.4,2,3.3,1.9,5.2c0,1.9-0.6,3.8-1.8,5.2c-1.1,1.4-2.9,2.3-4.7,2.2c-1.8,0-3.5-0.8-4.6-2.1
	c-1.3-1.5-2-3.4-1.9-5.4C181.1,22.7,181.7,20.9,182.9,19.5 M185.2,19c-0.9,0.9-1.4,2.5-1.4,4.8c0,1.7,0.4,3.5,1.1,5
	c0.5,1.4,1.8,2.3,3.2,2.3c1.1,0,2-0.6,2.5-1.5c0.6-1.3,0.9-2.7,0.9-4.1c0-1.7-0.4-3.4-1.1-4.9c-0.5-1.4-1.8-2.3-3.2-2.3
	C186.4,18.2,185.7,18.5,185.2,19 M194.5,31c0.6,0,1.2-0.2,1.7-0.5c0.3-0.4,0.5-1,0.4-1.6v-6.9c0-0.7-0.1-1.4-0.3-2.1
	c-0.1-0.4-0.5-0.7-1-0.6c-0.1,0-0.2,0-0.4,0c-0.1,0-0.3,0-0.5,0.1V19c0.6-0.2,1.1-0.4,1.7-0.6s1-0.4,1.2-0.4c0.5-0.2,1-0.4,1.5-0.6
	c0.1,0,0.1,0,0.1,0.1c0,0,0,0,0,0c0,0.1,0,0.2,0,0.3v2.5c0.5-0.8,1.1-1.5,1.8-2.1c0.5-0.5,1.1-0.7,1.8-0.8c0.4,0,0.9,0.1,1.2,0.5
	c0.6,0.6,0.6,1.5,0.1,2.2c-0.2,0.3-0.5,0.4-0.9,0.4c-0.4,0-0.8-0.2-1.1-0.5c-0.2-0.3-0.5-0.5-0.9-0.5c-0.5,0.1-0.9,0.4-1.2,0.9
	c-0.4,0.5-0.7,1.1-0.7,1.8v6.8c-0.1,0.7,0.1,1.3,0.6,1.8c0.6,0.4,1.2,0.5,1.9,0.5v0.5h-7.1L194.5,31 M203.9,31.1
	c0.6,0,1.3-0.2,1.8-0.6c0.4-0.5,0.5-1.1,0.5-1.7V14.1c0-0.5,0-0.9-0.2-1.4c-0.2-0.4-0.7-0.7-1.2-0.6c-0.1,0-0.3,0-0.4,0
	c-0.2,0-0.4,0.1-0.6,0.1v-0.5c1.3-0.4,2.9-0.9,4.7-1.5c0.1,0,0.1,0,0.1,0.1c0,0,0,0,0,0c0,0.1,0,0.3,0,0.4v18.1
	c-0.1,0.6,0.1,1.2,0.4,1.7c0.5,0.3,1.2,0.5,1.8,0.5v0.4h-7L203.9,31.1 M219,17.8c0.4,0.2,0.8,0.5,1.1,0.9v-4.8c0-0.4,0-0.8-0.2-1.2
	c-0.2-0.3-0.6-0.4-0.9-0.3c-0.1,0-0.2,0-0.3,0c-0.1,0-0.3,0-0.6,0.1v-0.5l1.2-0.3c0.4-0.1,0.9-0.3,1.3-0.4s0.8-0.3,1.1-0.4
	c0.1-0.1,0.4-0.1,0.8-0.3l0.1,0l-0.1,1.6c0,0.6,0,1.2,0,1.8s0,1.2,0,1.8l-0.1,12.3c0,0.5,0,0.9,0.2,1.4c0.3,0.3,0.8,0.5,1.2,0.4
	c0.1,0,0.2,0,0.3,0c0.1,0,0.2,0,0.3,0v0.5l-2.1,0.7l-2.2,0.9l-0.1-0.1v-1.9c-0.4,0.5-0.9,0.9-1.4,1.3c-0.7,0.5-1.6,0.7-2.4,0.7
	c-1.6,0-3-0.7-3.9-2c-1-1.3-1.5-2.9-1.5-4.6c-0.1-2,0.6-4,1.8-5.6c1-1.5,2.7-2.3,4.4-2.4C217.8,17.2,218.4,17.4,219,17.8
	 M219.4,29.4c0.4-0.3,0.6-0.8,0.7-1.3v-6.4c0.1-1-0.3-2-1-2.8c-1.2-1.1-3.1-1-4.2,0.2c-0.2,0.2-0.4,0.4-0.5,0.7
	c-0.7,1.2-1,2.7-1,4.1c0,1.5,0.3,3,1.1,4.3c0.6,1.2,1.8,1.9,3.2,1.9C218.3,30.1,219,29.9,219.4,29.4 M225,30.2
	c0-0.9,0.7-1.6,1.6-1.6c0.9,0,1.6,0.7,1.6,1.6s-0.7,1.6-1.6,1.6c0,0,0,0,0,0C225.7,31.8,225,31.1,225,30.2
	C225,30.2,225,30.2,225,30.2 M226.6,31.5c0.7,0,1.3-0.6,1.3-1.3c0-0.7-0.6-1.3-1.3-1.3c-0.7,0-1.3,0.6-1.3,1.3c0,0,0,0,0,0
	C225.3,30.9,225.9,31.5,226.6,31.5C226.6,31.5,226.6,31.5,226.6,31.5 M226.3,31.1H226v-1.8h0.7c0.3-0.1,0.5,0.1,0.6,0.4
	c0,0.1,0,0.1,0,0.2c0,0.3-0.2,0.5-0.4,0.5c0,0,0,0,0,0l0.5,0.8H227l-0.5-0.8h-0.3L226.3,31.1L226.3,31.1z M226.6,30.1
	c0.2,0,0.4,0,0.4-0.3c0-0.2-0.2-0.3-0.4-0.3h-0.4v0.6L226.6,30.1L226.6,30.1z M28.4,7.2c2.5,5.4,2.8,11.6,0.8,17.2
	c0.5,0.2,1,0.2,1.6,0.2c1.3-3,3-5.9,5.2-8.4c-0.1-0.4,0.1-0.8,0.5-0.9c0.4-0.2,0.9-0.1,1.2,0.3c2.1,5,2.7,10.6,2.6,16.2
	c0,0.3-0.1,0.5-0.4,0.5c-1.1-0.3-1.9-1.1-2.2-2.1c-0.1-0.8-0.2-1.6-0.2-2.4c-1.4,0.1-2.7,0.1-4.1,0c-0.7,1.5-1.2,3.1-1.7,4.7
	c-0.2,0.5-0.9,0.4-1.4,0.3c-1.2-0.4-1.2-1.8-1.3-2.9c0.3-1.1,0.7-2.2,1.1-3.2c-0.2-0.6-0.5-1.2-1-1.6c-1,2.1-2.3,4-4,5.6
	c-2.9,2.5-6.3,4.6-10.3,3.6c-2-0.6-3.6-2-4.5-3.9C9.6,30.7,9,30.8,8.4,31c-2.5,0.7-5.1-0.2-6.7-2.2c-3-4.2-1.4-10.5,0.2-14.9
	c1.7-4.1,4.9-8.4,9.2-10.3c0.4-0.2,1.2-0.1,1.1,0.4C11.6,5.4,9.9,6.3,9,7.7c-4,5.1-5.8,11.5-5.3,18c0.1,1.5,1,2.8,2.3,3.4
	c1.1,0.4,2.4,0.2,3.3-0.6c-1-4.4-1.9-10.5,1.7-14.1c1.3-1.4,3.1-2.4,5-2.6c0.8,0,1.5,0.2,2,0.8c1.9,2.7,1.8,6.9,0.3,9.7
	c-1.3,2.3-3.1,4.4-5.1,6.1c0.3,1,1,1.8,1.9,2.2c2.5,0.9,4.8-0.5,6.6-2.1c3.4-3.7,4.6-8.4,5-13.4c0-5.6-1.6-10.8-5.9-14.6
	c-0.2-0.1,0-0.6,0.3-0.5C24.4,0.9,27,4.3,28.4,7.2 M87.1,8.8c-8.3-5.2-19-8.9-29.4-5.9c-1.2,0.6-2,1.8-2.1,3.1
	c0.7,0.8,1.7,0.7,2.8,0.7c0.3,0,0.6-0.2,0.8-0.5c-0.4-0.8-1.4-0.5-1.9-0.9c0.4-0.2,0.7-0.3,1.1-0.4c10.1-1.5,20.1,1.6,28,7.4
	c4.2,3,8.2,7.5,6.8,13c-1.8,5.2-8.9,6-14.4,6c-1.2,0-2.3-0.2-3.4-0.6c0-3.3,0-7.3-0.1-9.4c3.3,0,6.5,0.6,9.6,1.8
	c0.6,0.4-1.1,1.5-1.7,2c-0.3,0.4,0.9,0.8,1.8,0.7c1.3-0.3,2.4-1.2,2.9-2.4c0.3-1-0.1-2.1-0.9-2.8c-3.1-2.7-7.4-2.6-11.6-2.8
	c0-1.7-0.1-3.3-0.4-5c-0.1-1.1-0.9-1.9-1.9-2.1c-0.7,0.9-1,2-1,3.2c-0.2,1.4-0.3,3-0.5,4.3c0,0-2.3,0.4-3.6,0.8s-6.6,2-6.2,4.7
	c0.6,2.4,4.4,5.3,7,7c0.9,0.6,1.7,1.1,2.7,1.5c0,1.2,0.4,2.4,1.1,3.4c0.6,0.2,1.3,0.2,1.9,0c0.7-0.4,1.1-1.2,1-2
	c0.9,0.2,2,0.4,3.6,0.6c6.3,0.8,14.1-1,17.5-7.4c2.9-6.1-2.1-12-5.9-15.3C89.5,10.5,88.3,9.6,87.1,8.8 M103,4.6
	c-3.1,0.6-6.6,2.4-7.6,5.7c-0.3,1.2,0.1,2.5,1,3.3c-0.1,0.8-0.2,1.9,0.7,2.5c1,0.5,1.2-0.6,1.7-1.1c2.8,1.1,5.6-0.2,7.8-1.9
	c1.7-1.4,3.7-3.2,2.9-5.5c-0.5-0.9-1.4-1.5-2.4-1.5C106.1,4.9,104.5,4.3,103,4.6 M101.2,7.6c-1.4,1.1-2.7,2.4-3.6,3.9
	c-0.5-0.9,0.3-1.9,0.9-2.6C99.1,8.1,100.1,7.6,101.2,7.6 M107.6,8.5c0.3,0.9-0.8,2.3-1.9,2.9c-1.7,1.1-3.7,1.5-5.7,1.4
	c0.4-0.9,0.9-1.6,1.7-2.2c1.5-1.5,3.5-3.3,5.4-2.7C107.3,8,107.5,8.2,107.6,8.5 M15.5,13.7c-0.1-0.2-0.3-0.3-0.5-0.2
	c-0.1,0-0.1,0.1-0.1,0.1c-1.7,2-1.8,4.8-2.2,7.4c-0.1,1.5-0.1,3.1,0.1,4.6c2.1-2.4,3.3-5.6,3.4-8.8C16.3,15.8,16,14.7,15.5,13.7
	 M126.4,15.2c-0.6-0.1-0.5,0.7-0.4,1.1c0.7,2.8,1.7,5.5,1.9,8.5c0.2,0.6,0.1,1.3-0.2,2c-2.2-2.7-3.5-5.9-6.1-8.3
	c-0.4-0.2-0.9-0.1-1.1,0.3c0,0.1-0.1,0.1-0.1,0.2c-1.2,2.6-1.8,5.4-1.9,8.2c-0.1,1.6-0.4,3.6,1.2,4.5c0.5,0.2,1,0.1,1.3-0.4
	c0.7-2.4,0.6-5.1,0.7-7.7c0-0.2,0.2-0.7,0.3-0.5c1.1,2.1,2.2,4,3.4,6c0.6,1,1.2,2,2.3,1.9c1.1-0.2,2-1,2.5-2
	c1.1-3.7,0.6-7.7-1.4-11.1C128.4,16.9,127.6,15.5,126.4,15.2 M44.8,15.8c-1.6,0.9-2.1,2.6-2.5,4.2c-0.9,3.1-2,6.6-0.8,9.9
	c0.4,1,1.3,1.6,2.4,1.8c2.5-0.1,4.7-1.7,5.6-4.1c0.1-0.5,0.2-1.5-0.3-1.5c-1.5,0.1-2.8,1-4.2,1.4c-0.3,0.1-0.9,0.4-1-0.1
	c-0.1-2.7,0.7-5.1,1.4-7.6c0.5-1.1,0.6-2.3,0.3-3.5C45.4,16,45.2,15.6,44.8,15.8 M48.1,16.1c-0.7,0.4-1.1,1.1-1,1.9
	c0.2,2.2,2.6,3.2,4.3,3.9c-0.3,1-0.6,2-0.9,3c-0.6,3.2-1.3,7.7,0.9,10.4c0.5,0.7,1.3,1,2.1,0.8c0.3,0,0.5-0.2,0.5-0.5
	c-0.3-4.2-0.4-9,0.8-12.9c0.8,0.1,1.6,0,2.4-0.1c1.1-0.2,2.1-1,2.5-2c-0.1-1.4-0.3-3.2-1.7-3.8c-2.2-0.7-3.9,0.9-5.2,2.5
	c-1.7-0.2-3.2-0.9-4.5-2C48.3,16.7,48.2,16.4,48.1,16.1 M148.1,17.9c-2.6,3.2-5.4,7.4-3.3,11.5c-1.6,3.8-2.5,7.8-2.9,11.9
	c0.2,1.1,0.8,2,1.8,2.6c0.3,0.2,1,0.6,1.1,0.2c0.7-4,1.7-8,3.2-11.9c1.4,0.2,2.8,0,4-0.7c3.1-1.5,6-4.7,6.1-8.2
	c0.1-1.9-0.7-3.7-2.3-4.8c-0.5-0.3-1.1-0.2-1.6,0.1c-3.2,1.8-7,6.1-7.9,8c-0.2-3.6,2.9-5.9,3.1-9.2
	C149.5,16.5,148.4,17.4,148.1,17.9 M116.3,17.7c-4.3-0.7-9.2-0.5-12.3,2.5c-0.5,0.7-0.6,1.6-0.5,2.5c0.2,0.6,0.7,1,1.2,1.2
	c3.4,0.8,7.8-0.1,10.7,2.1c0.2,0.4,0.2,0.8-0.2,1.1c-0.1,0-0.1,0.1-0.2,0.1c-2.7,1.3-5.8,1.8-8.8,1.3c-0.4-0.1-1.1-0.6-0.9-1
	c1.3-2,3.4,0,5,0.2c1.2,0.2,2.5-0.2,3.4-1c0.3-0.5-0.7-0.8-1.3-1c-2.2-0.6-5.4-1.3-7.5,0.1c-0.7,0.6-1,1.7-0.7,2.6
	c1.7,2.8,5.1,3.8,8.2,3.3c2.1-0.3,4.7-1.1,5.2-3.5c0.2-1.5,0.1-3.2-1.1-4.2c-3-2-7.2-0.9-10.5-2.2c-0.1-0.1,0-0.2,0.2-0.3
	c3.5-1.1,7.6-0.7,11.1-1.5c0.6-0.2,0.9-0.8,0.8-1.4C117.6,18,116.9,17.8,116.3,17.7 M141.9,17.6c-2-0.3-6.3,0.6-9.4,1
	c-0.4,0-0.3,0.4-0.2,0.7c0.2,1.2,1.6,1,2.4,1.5c-0.3,0.8-0.6,1.7-1.1,2.5c-0.5,0.2-1.2,0.1-1.3,0.8c-0.1,0.4,0.3,0.7,0.3,1.3
	c-0.5,1.2-1.3,2.5-1,4.1c0.4,1.4,1.1,2.9,2.1,3.1c3.2,0.6,5.8-1.2,8.2-3c0.4-0.4-0.4-1.7-0.7-1.8c-2.1-0.2-4.1,0.7-6.3,0.6
	c0.2-1,0.5-1.9,1-2.8c1.8-0.3,4.4,0.1,5.4-0.7c0.3-0.5,0.2-1.2-0.1-1.6c-1.4-0.3-2.9-0.4-4.4-0.2c0.2-0.7,0.4-1.5,0.7-2.2
	c1.1,0.1,2.2,0.1,3.3,0c1.1-0.1,2.4,0.1,3.2-0.8c0.2-0.4-0.6-1.6-1.1-2C142.6,17.8,142.3,17.6,141.9,17.6 M100.2,17.7
	c-0.6,0-0.8,0.8-0.9,1.2c-0.5,3.3-0.7,6.5-0.6,9.8c0,1.2-0.2,2.9,1.4,3.2c0.6,0.1,1.8,0,1.8-0.4c0.2-4.1,0-8.2-0.4-12.2
	C101.5,18.6,101,17.9,100.2,17.7 M58.1,18.2c0.2,0.4-0.3,0.7-0.6,0.8c-0.5,0.3-1.1,0.4-1.7,0.3c0-0.4,0.2-0.7,0.5-1
	C56.8,18,57.6,17.6,58.1,18.2 M36.4,20.7c-0.6,1.1-1.2,2.2-1.6,3.4c-0.1,0.2-0.2,0.4,0,0.4c0.8,0.1,1.6,0,2.3-0.3
	C37.1,23,36.8,21.8,36.4,20.7 M156,23.6c-0.4,2.4-3.3,4.4-4.8,4.9c-0.4,0.1-0.8,0.2-1.3,0.2c1.4-2.8,3.2-5.3,5.5-7.4
	C155.9,20.8,156.1,22.8,156,23.6 M71.4,21.3c-0.2,2.8-0.2,6-0.2,8c-3.3-0.9-6.3-2.8-8.5-5.5c-0.5-0.8,1.4-1.3,2.3-1.5
	C67.1,21.7,69.3,21.4,71.4,21.3"/>
</svg>
