<svg xmlns="http://www.w3.org/2000/svg" viewBox="0 0 213.25 19.85" width="100%" height="100%" preserveAspectRatio="none"><defs><style>.cls-1{fill:#fff;}</style></defs><g id="Layer_2"><g id="Layer_1-2"><polygon class="cls-1" points="56.5 16.58 56.03 18.42 50.84 18.42 50.83 13.17 54.95 13.17 54.95 12.07 50.83 12.07 50.83 7.67 55.57 7.67 56.04 9.5 56.67 9.45 56.46 6.56 46.5 6.56 46.5 7.35 48.68 7.67 48.68 18.42 46.51 18.73 46.51 18.74 46.5 18.74 46.5 19.52 46.51 19.52 56.92 19.52 57.13 16.64 56.5 16.58"/><path class="cls-1" d="M43.54,10.44h-.78l-.11-1.26A6,6,0,0,0,38,7.06c-4,0-5.25,2.44-5.25,5.4,0,2.68,1.92,6.45,6,6.45,2.26,0,3.78-1.52,4.85-2.73l.6.32a25.83,25.83,0,0,0-1.6,2.78,25.51,25.51,0,0,1-3.95.57c-4.15,0-8-1.67-8-7.07,0-4.15,2.86-6.51,7.42-6.51a30.62,30.62,0,0,1,5.4.82l.08,3.35"/><path class="cls-1" d="M63.27,19.54H57.82v-.79l1.8-.31L64.5,6.27h1.62l5.27,12.17,1.92.31v.79H66.68v-.79l2.25-.31-1.47-3.65H62.38L61,18.44l2.31.31Zm-.45-5.85h4.12L64.79,8.74Z"/><polygon class="cls-1" points="90.4 7.38 88.12 7.69 88.12 19.54 87.23 19.54 77.74 9.05 77.74 18.44 79.99 18.75 79.99 19.54 74.41 19.54 74.41 18.75 76.64 18.44 76.64 7.69 74.38 7.38 74.38 6.59 78.6 6.59 87.02 16.03 87.02 7.69 84.74 7.38 84.74 6.59 90.4 6.59 90.4 7.38"/><polygon class="cls-1" points="93.8 7.69 91.49 7.38 91.49 6.59 98.23 6.59 98.23 7.38 95.95 7.69 95.95 18.44 98.23 18.75 98.23 19.54 91.54 19.54 91.54 18.75 93.8 18.44 93.8 7.69"/><path class="cls-1" d="M105,19.54H99.5v-.79l1.81-.31,4.87-12.17h1.63l5.27,12.17,1.91.31v.79h-6.63v-.79l2.26-.31-1.47-3.65h-5.09l-1.41,3.65,2.3.31Zm-.44-5.85h4.11l-2.15-4.95Z"/><polygon class="cls-1" points="195.4 16.57 194.93 18.41 189.74 18.41 189.73 13.17 193.84 13.17 193.85 12.06 189.73 12.06 189.73 7.66 194.47 7.66 194.94 9.49 195.57 9.44 195.36 6.56 185.4 6.56 185.4 7.34 187.57 7.66 187.57 18.41 185.41 18.73 185.41 18.73 185.4 18.73 185.4 19.52 185.41 19.51 195.82 19.51 196.03 16.63 195.4 16.57"/><path class="cls-1" d="M132.82,10.44H132l-.1-1.26a6,6,0,0,0-4.62-2.13c-4,0-5.24,2.44-5.24,5.4,0,2.68,1.91,6.46,6,6.46,2.25,0,3.77-1.53,4.85-2.73l.6.31a23.64,23.64,0,0,0-1.6,2.78,24.48,24.48,0,0,1-4,.58c-4.14,0-8-1.68-8-7.08,0-4.14,2.86-6.5,7.42-6.5a31.71,31.71,0,0,1,5.4.81l.08,3.36"/><path class="cls-1" d="M137.63,7.68l-2.26-.31V6.58h6.27c3.25,0,4.51.63,4.51,3a4,4,0,0,1-2.36,3.54l2.94,4.22a4.54,4.54,0,0,0,2.12,1.84l-.29.63c-2.25-.32-3.3-.61-5.71-4.2l-1.23-1.83a17.17,17.17,0,0,1-1.84.1v4.51l2.36.32v.78h-6.72v-.78l2.21-.32V7.68m2.15,5.38a15.24,15.24,0,0,0,1.57.08c1.6,0,2.65-.55,2.65-2.68,0-2.8-1.6-3.09-2.86-3.09a10.83,10.83,0,0,0-1.36.08Z"/><path class="cls-1" d="M164.66,6.58v.79l-2,.31v6.45c0,3.91-2.18,5.72-6,5.72-4.09,0-6.05-1.5-6.05-5V7.68l-2.18-.31V6.58h6.5v.79l-2.17.31v6.87c0,2.2.7,4.2,4.06,4.2,2.83,0,4.19-1.47,4.19-4.72V7.68l-2.2-.31V6.58h5.9"/><polygon class="cls-1" points="168.35 7.68 166.04 7.37 166.04 6.58 172.78 6.58 172.78 7.37 170.5 7.68 170.5 18.43 172.78 18.74 172.78 19.53 166.09 19.53 166.09 18.74 168.35 18.43 168.35 7.68"/><path class="cls-1" d="M182.39,9.76c-.18-.92-.57-2.71-2.86-2.71a2.23,2.23,0,0,0-2.33,2.13c0,3.54,6.64,2.41,6.64,6.61,0,2.64-2.18,4.06-4.59,4.06a8.92,8.92,0,0,1-4-.92c-.06-.58-.19-2.28-.32-3.17l.68-.11c.16,1,.47,3.41,3.52,3.41,1.54,0,2.83-.87,2.83-2.33,0-3.36-6.64-2.23-6.64-6.66,0-2.36,1.89-3.8,4.64-3.8a13.82,13.82,0,0,1,2.91.52A22.68,22.68,0,0,0,183,9.7l-.63.06"/><path class="cls-1" d="M205.85,9.76c-.18-.92-.58-2.71-2.86-2.71a2.22,2.22,0,0,0-2.33,2.13c0,3.54,6.63,2.41,6.63,6.61,0,2.64-2.17,4.06-4.59,4.06a9,9,0,0,1-4-.92c-.05-.58-.18-2.28-.31-3.17l.68-.11c.16,1,.47,3.41,3.51,3.41,1.55,0,2.83-.87,2.83-2.33,0-3.36-6.63-2.23-6.63-6.66,0-2.36,1.89-3.8,4.64-3.8a13.82,13.82,0,0,1,2.91.52,22.68,22.68,0,0,0,.16,2.91l-.63.06"/><path class="cls-1" d="M18.75,0A9.91,9.91,0,0,0,9.3,6.91a10.35,10.35,0,0,1,2.84.28C12.82,3.69,14.77,1,18.78,1c5.18,0,6.93,4.43,6.93,9.36,0,3.84-1.78,8.46-6.93,8.46-4.17,0-6.13-3-6.73-6.23h0a11.55,11.55,0,0,1-2.71.17,9.69,9.69,0,0,0,9.43,7A9.92,9.92,0,0,0,18.75,0"/><path class="cls-1" d="M6.92,8.12A12.47,12.47,0,0,1,0,8.44l0,0c1.7,1.65,5,1.95,7.86,1.12a12.36,12.36,0,0,1,6.92-.35v0c-1.69-1.69-5-1.94-7.87-1.11"/><path class="cls-1" d="M11.88,10.18A12.38,12.38,0,0,1,5,10.5l0,0c1.7,1.65,5,2,7.86,1.13a12.29,12.29,0,0,1,6.92-.36h0c-1.69-1.7-5-2-7.87-1.12"/><path class="cls-1" d="M213.25,8.53a2.26,2.26,0,0,1-4.52,0A2.17,2.17,0,0,1,211,6.34a2.12,2.12,0,0,1,2.26,2.19m-.41,0a1.85,1.85,0,1,0-3.7,0,1.85,1.85,0,1,0,3.7,0m-2.66-.4V7.56c0-.12-.05-.17-.21-.17h-.05a0,0,0,0,1,0,0V7.24s0,0,0,0l.46,0,.65,0a1.07,1.07,0,0,1,.74.22.51.51,0,0,1,.19.4.74.74,0,0,1-.66.72v0a.24.24,0,0,1,.16.11c0,.06.26.36.31.46a1.74,1.74,0,0,0,.32.38.56.56,0,0,0,.29.06s0,0,0,0v.11s0,0,0,0h-.69a1.16,1.16,0,0,1-.16-.2,3.47,3.47,0,0,1-.26-.4,1.78,1.78,0,0,0-.25-.36.33.33,0,0,0-.25-.15h-.15v.18c0,.21,0,.57,0,.63s0,.14.12.14h.15s0,0,0,0v.11s0,0,0,0h-1s0,0,0,0V9.63s0,0,0,0H210c.13,0,.2,0,.2-.2Zm.44.34h.25a.58.58,0,0,0,.62-.57.47.47,0,0,0-.19-.37.79.79,0,0,0-.49-.14h-.19Z"/></g></g></svg>